<svg id="e5MsFEIDwbk1" xmlns="http://www.w3.org/2000/svg" xmlns:xlink="http://www.w3.org/1999/xlink" viewBox="0 0 300 300" shape-rendering="geometricPrecision" text-rendering="geometricPrecision"><defs><linearGradient id="e5MsFEIDwbk2-fill" x1="0" y1="0.5" x2="1" y2="0.5" spreadMethod="pad" gradientUnits="objectBoundingBox" gradientTransform="translate(0 0)"><stop id="e5MsFEIDwbk2-fill-0" offset="18%" stop-color="rgba(168,86,86,0.55)"/><stop id="e5MsFEIDwbk2-fill-1" offset="75%" stop-color="rgba(64,88,90,0.56)"/></linearGradient></defs><path d="M299.999998,121.957743q-69.002407,0-77.387,0L170.460016,89.863599l-44.9318-.000001-15.244718,19.256486L90.224659,81.037709L39.676384,85.049475L13.198716,131.585982v81.840063l20.058839,32.896496l50.548275,5.616475l28.884729-24.070607l27.280021,3.209414l16.849425,24.070607l40.117679,1.604707l4.011768-31.29179-15.244718-28.082375l34.501203-4.814121l5.616475-16.047071h74.177586q2.407059-20.058839,0-54.560037Z" transform="translate(.000002 0.000006)" fill="url(#e5MsFEIDwbk2-fill)" stroke="#3f5787" stroke-width="0.6"/><path d="M17.21048,147.63306c52.152979,0,226.520292-.222198,278.186214,0" transform="translate(4.603307-10.430594)" fill="none" stroke="#3f5787" stroke-width="0.6"/><path d="M14.00107,168.49425c47.780147,0,237.66807.02188,280.449389-.003567" transform="matrix(.99994-.010948 0.010948 0.999939 3.722556-12.809592)" fill="none" stroke="#3f5787" stroke-width="0.6"/><path d="M13.19872,176.517786c39.526137-.542055,240.30782,0,279.941157,0" transform="translate(6.860123-16.260423)" fill="none" stroke="#3f5787" stroke-width="0.6"/><path d="M13.19872,140.41188c46.12905,0,233.845975,0,281.184845,0" transform="translate(5.616475 27.13693)" fill="none" stroke="#3f5787" stroke-width="0.6"/><rect width="8.615069" height="41.722385" rx="0" ry="0" transform="translate(13.198718 131.585987)" fill="#ac6961" stroke-width="0"/><path d="M20.43104,145.93641c14.255415,0,267.87954,0,279.56896,0" transform="translate(1.382747 0.983127)" fill="none" stroke="#3f5787" stroke-width="0.6"/><rect width="1.160812" height="49.427395" rx="0" ry="0" transform="matrix(-1.321922 0 0 1 234.020535 124.653027)" fill="#d2dbed" stroke-width="0"/><rect width="1.160812" height="49.427395" rx="0" ry="0" transform="translate(242.539784 124.653027)" fill="#d2dbed" stroke-width="0"/><rect width="1.160812" height="49.427395" rx="0" ry="0" transform="translate(253.567502 124.653037)" fill="#d2dbed" stroke-width="0"/><rect width="1.160812" height="49.427395" rx="0" ry="0" transform="translate(265.756033 123.880977)" fill="#d2dbed" stroke-width="0"/><rect width="1.160812" height="49.427395" rx="0" ry="0" transform="translate(279.685783 122.205847)" fill="#d2dbed" stroke-width="0"/><rect width="1.160812" height="49.427395" rx="0" ry="0" transform="translate(291.874313 123.880977)" fill="#d2dbed" stroke-width="0"/><polygon points="0,-12.188531 3.582119,-4.930364 11.591982,-3.766463 5.795991,1.883232 7.164239,9.860729 0,6.094265 -7.164239,9.860729 -5.795991,1.883232 -11.591982,-3.766463 -3.582119,-4.930364 0,-12.188531" transform="matrix(0 1-1 0 94.142633 124.653037)" fill="#dfb83e" stroke-width="0"/><polygon points="0,-12.867796 3.78175,-5.205133 12.238002,-3.976368 6.119001,1.988184 7.563501,10.410266 0,6.433898 -7.563501,10.410266 -6.119001,1.988184 -12.238002,-3.976368 -3.78175,-5.205133 0,-12.867796" transform="matrix(-.840853 0.541264-.541264-.840853 135.931882 113.061055)" fill="#a88f5d" stroke-width="0"/><polygon points="0,-14.240629 4.185216,-5.760455 13.543643,-4.400596 6.771821,2.200298 8.370431,11.520911 0,7.120314 -8.370431,11.520911 -6.771821,2.200298 -13.543643,-4.400596 -4.185216,-5.760455 0,-14.240629" transform="matrix(-.930294 0.366814-.366814-.930294 178.301536 117.256988)" fill="#9a9e71" stroke-width="0"/><ellipse rx="6.384468" ry="6.384469" transform="translate(48.870948 229.51491)" fill="#060a12" stroke-width="0"/><ellipse rx="3.77264" ry="4.933453" transform="translate(65.412525 218.196988)" fill="#101727" stroke-width="0"/><ellipse rx="3.483981" ry="2.466726" transform="translate(91.822553 215.730261)" fill="#080d17" stroke-width="0"/><ellipse rx="5.513859" ry="5.513859" transform="translate(43.357089 200.204396)" fill="#0e1420" stroke-width="0"/><ellipse rx="4.353048" ry="5.513859" transform="translate(83.985525 200.204396)" fill="#0b111c" stroke-width="0"/><ellipse rx="2.36242" ry="3.192234" transform="translate(193.762347 226.322676)" fill="#080a0e" stroke-width="0"/><ellipse rx="4.724841" ry="3.77264" transform="matrix(.999569 0.029349-.029349 0.999569 178.800351 239.67202)" fill="#080c15" stroke-width="0"/><ellipse rx="4.724841" ry="4.062844" transform="translate(178.800351 222.259832)" fill="#1e2532" stroke-width="0"/><ellipse rx="5.832207" ry="6.674672" transform="translate(163.023104 232.997348)" fill="#0d1015" stroke-width="0"/><ellipse rx="18.592037" ry="19.591551" transform="translate(138.59886 193.671984)" fill="#7c5541" stroke-width="0"/><rect width="6.384468" height="40.047255" rx="0" ry="0" transform="translate(48.870948 131.585987)" fill="#88655f" stroke-width="0"/></svg>